<svg width="213" height="63" viewBox="0 0 213 63" fill="none" xmlns="http://www.w3.org/2000/svg">
<path d="M209.503 61.4457C206.911 62.2439 206.149 61.5954 202.642 61.5954C199.136 61.5954 199.136 61.4457 195.477 61.4457C191.97 61.4457 191.97 61.5455 188.311 61.5455C184.805 61.5455 184.805 61.5954 181.146 61.5954C177.64 61.5954 177.64 61.4956 173.981 61.4956C170.474 61.4956 170.474 61.6951 166.815 61.6951C163.309 61.6951 163.309 61.6951 159.65 61.6951C156.143 61.6951 156.143 61.6951 152.484 61.6951C148.978 61.6951 148.978 61.5455 145.319 61.5455C141.812 61.5455 141.812 61.5954 138.153 61.5954C134.647 61.5954 134.647 61.4956 130.988 61.4956C127.329 61.4956 127.482 61.5954 123.823 61.5954C120.316 61.5954 120.316 61.5455 116.657 61.5455C113.151 61.5455 113.151 61.745 109.492 61.745C105.833 61.745 105.985 61.6452 102.326 61.6452C98.8198 61.6452 98.8198 61.4956 95.1609 61.4956C91.6544 61.4956 91.6544 61.4457 87.9955 61.4457C84.489 61.4457 84.489 61.5455 80.83 61.5455C77.3236 61.5455 77.3236 61.4457 73.6646 61.4457C70.1581 61.4457 70.1581 61.5455 66.4992 61.5455C62.9927 61.5455 62.9927 61.5455 59.3338 61.5455C55.8273 61.5455 55.8273 61.6452 52.1683 61.6452C48.6619 61.6452 48.6619 61.6452 45.0029 61.6452C41.4964 61.6452 41.4964 61.6452 37.8375 61.6452C34.331 61.6452 34.331 61.5954 30.6721 61.5954C27.1656 61.5954 27.1656 61.6951 23.5066 61.6951C20.0002 61.6951 20.0002 61.4457 16.3412 61.4457C12.8347 61.4457 12.8347 61.6452 9.17578 61.6452C5.6693 61.6452 4.44965 62.4435 2.01036 61.6452C-0.428936 60.847 2.46773 60.4479 2.46773 59.3005C2.46773 58.1531 1.70545 58.1531 1.70545 57.0057C1.70545 55.8582 2.31527 55.8582 2.31527 54.7108C2.31527 53.5634 2.01036 53.5634 2.01036 52.416C2.01036 51.2685 2.16281 51.2685 2.16281 50.1211C2.16281 48.9737 2.16281 48.9737 2.16281 47.8263C2.16281 46.6788 2.16281 46.6788 2.16281 45.5314C2.16281 44.384 2.46773 44.384 2.46773 43.2366C2.46773 42.0891 2.01036 42.0891 2.01036 40.9417C2.01036 39.7943 2.16281 39.7943 2.16281 38.6469C2.16281 37.4994 2.31527 37.4994 2.31527 36.352C2.31527 35.2046 2.16281 35.2046 2.16281 34.0572C2.16281 32.9097 2.16281 32.9097 2.16281 31.7623C2.16281 30.6149 2.16281 30.6149 2.16281 29.4675C2.16281 28.32 2.46773 28.32 2.46773 27.1726C2.46773 26.0252 2.01036 26.0252 2.01036 24.8778C2.01036 23.7303 1.8579 23.7303 1.8579 22.5829C1.8579 21.4355 1.8579 21.4355 1.8579 20.2881C1.8579 19.1406 2.31527 19.1406 2.31527 17.9932C2.31527 16.8458 2.46773 16.8458 2.46773 15.6984C2.46773 14.5509 2.31527 14.5509 2.31527 13.4035C2.31527 12.2561 2.46773 12.2561 2.46773 11.1087C2.46773 9.96125 1.8579 9.96125 1.8579 8.81382C1.8579 7.6664 2.16281 7.6664 2.16281 6.51897C2.16281 5.37155 2.31527 5.37155 2.31527 4.17424C2.31527 3.02681 -0.428936 2.62771 2.01036 1.8295C5.6693 0.432634 6.88895 1.43039 10.3954 1.43039C13.9019 1.43039 13.9019 1.38051 17.5609 1.38051C21.0673 1.38051 21.0673 1.38051 24.7263 1.38051C28.2328 1.38051 28.2328 1.28073 31.8917 1.28073C35.3982 1.28073 35.3982 1.33062 39.0571 1.33062C42.7161 1.33062 42.5636 1.38051 46.2226 1.38051C49.729 1.38051 49.729 1.28073 53.388 1.28073C56.8945 1.28073 56.8945 1.48028 60.5534 1.48028C64.0599 1.48028 64.0599 1.33062 67.7188 1.33062C71.3778 1.33062 71.2253 1.43039 74.8843 1.43039C78.3907 1.43039 78.3907 1.23084 82.0497 1.23084C85.5562 1.23084 85.5562 1.28073 89.2151 1.28073C92.8741 1.28073 92.7216 1.23084 96.3805 1.23084C99.887 1.23084 99.887 1.43039 103.546 1.43039C107.052 1.43039 107.052 1.43039 110.711 1.43039C114.218 1.43039 114.218 1.38051 117.877 1.38051C121.536 1.38051 121.383 1.43039 125.042 1.43039C128.549 1.43039 128.549 1.38051 132.208 1.38051C135.714 1.38051 135.714 1.28073 139.373 1.28073C142.88 1.28073 142.88 1.38051 146.539 1.38051C150.045 1.38051 150.045 1.38051 153.704 1.38051C157.21 1.38051 157.21 1.23084 160.869 1.23084C164.376 1.23084 164.376 1.43039 168.035 1.43039C171.541 1.43039 171.541 1.33062 175.2 1.33062C178.707 1.33062 178.707 1.28073 182.366 1.28073C186.025 1.28073 185.872 1.23084 189.531 1.23084C193.038 1.23084 193.038 1.23084 196.697 1.23084C200.203 1.23084 200.203 1.43039 203.862 1.43039C207.368 1.43039 208.436 0.53241 210.875 1.33062C213.314 2.12883 211.027 2.47804 211.027 3.62547C211.027 4.77289 211.18 4.77289 211.18 5.92032C211.18 7.06774 211.18 7.06774 211.18 8.21517C211.18 9.36259 211.332 9.36259 211.332 10.51C211.332 11.6574 210.722 11.6574 210.722 12.8049C210.722 13.9523 211.485 13.9523 211.485 15.0997C211.485 16.2471 211.332 16.2471 211.332 17.3946C211.332 18.542 211.027 18.542 211.027 19.6894C211.027 20.8368 210.875 20.8368 210.875 21.9843C210.875 23.1317 211.027 23.1317 211.027 24.2791C211.027 25.4265 210.57 25.4265 210.57 26.574C210.57 27.7214 210.57 27.7214 210.57 28.8688C210.57 30.0162 211.18 30.0162 211.18 31.1637C211.18 32.3111 211.027 32.3111 211.027 33.4585C211.027 34.6059 211.027 34.6059 211.027 35.7534C211.027 36.9008 211.332 36.9008 211.332 38.0482C211.332 39.1956 210.875 39.1956 210.875 40.3431C210.875 41.4905 211.027 41.4905 211.027 42.6379C211.027 43.7853 210.57 43.7853 210.57 44.9328C210.57 46.0802 211.027 46.0802 211.027 47.2276C211.027 48.375 211.027 48.375 211.027 49.5225C211.027 50.6699 210.722 50.6699 210.722 51.8173C210.722 52.9647 210.57 52.9647 210.57 54.1122C210.57 55.2596 210.57 55.2596 210.57 56.407C210.57 57.5544 210.418 57.5544 211.027 58.7019C210.722 60.3482 211.942 60.6475 209.503 61.4457Z" stroke="#597458" stroke-width="2" stroke-miterlimit="10"/>
</svg>
