<svg width="560" height="681" viewBox="0 0 560 681" fill="none" xmlns="http://www.w3.org/2000/svg">
<path d="M339.845 398.007C334.207 400.594 323.757 388.636 321.086 385.519C295.615 362.46 274.287 336.26 256.866 306.406C240.386 278.602 224.739 248.554 213.897 218.163C208.614 202.594 205.34 187.344 204.116 171.153C203.965 168.12 201.396 154.408 205.967 153.552C210.025 152.931 217.569 161.258 219.77 163.35C229.556 172.51 237.763 183.635 246.483 194.525C258.856 209.323 270.482 223.843 281.04 240.094C289.44 252.992 298.353 265.655 304.467 278.981C309.918 289.51 315.369 300.038 320.82 310.566C329.799 328.783 338.5 347.747 345.429 366.904C347.033 371.752 349.469 374.357 348.788 379.634C348.426 382.902 347.829 385.658 346.955 389.161C346.08 392.664 346.852 399.756 350.036 402.638C350.591 401.143 351.338 401.42 339.845 398.007Z" stroke="#F4EDE7" stroke-opacity="0.07" stroke-width="3" stroke-miterlimit="10"/>
<path d="M320.271 432.427C307.24 429.719 295.084 423.508 281.54 421.036C261.738 417.092 239.138 413.812 219.594 417.195C205.647 419.251 191.657 422.568 177.433 425.372C174.635 426.035 165.023 426.723 164.149 430.226C168.551 434.411 175.322 435.647 180.556 437.589C193.78 442.069 206.726 447.297 220.185 452.29C252.337 464.217 283.615 479.648 317.238 485.316C330.781 487.788 347.828 491.134 361.86 486.558C366.708 484.954 370.296 483.307 376.362 483.006C379.395 482.855 383.646 484.007 386.486 482.083C386.806 480.075 378.195 473.479 376.977 472.176C369.391 465.109 359.52 458.47 350.867 453.134C344.18 449.377 336.703 446.603 329.738 443.594C327.26 442.249 321.598 438.022 320.271 432.427Z" stroke="#F4EDE7" stroke-opacity="0.07" stroke-width="3" stroke-miterlimit="10"/>
<path d="M418.406 440.76C415.65 440.163 414.71 438.113 413.021 435.785C406.545 425.727 400.388 413.661 395.215 402.385C385.615 380.111 380.628 355.719 377.649 331.648C374.67 307.576 372.204 283.269 373.518 259.089L374.495 244.991C374.387 240.697 375.026 236.681 376.648 233.455C379.765 230.784 383.697 233.944 385.898 236.036C402.137 248.44 408.661 272.125 417.405 289.829C421.403 298.543 425.401 307.256 427.861 316.675C430.749 328.379 431.075 341.259 431.443 352.879C431.425 360.953 430.894 369.262 430.363 377.572C429.748 388.402 430.436 398.013 431.829 409.163C432.601 416.254 433.608 423.858 431.859 430.865C430.472 434.603 429.085 438.342 428.446 442.358C427.614 444.601 426.143 450.86 428.856 452.717C430.159 451.499 429.923 450.987 418.406 440.76Z" stroke="#F4EDE7" stroke-opacity="0.07" stroke-width="3" stroke-miterlimit="10"/>
<path d="M309.169 236.494C307.8 232.159 304.339 230.024 302.457 225.924C299.635 219.773 299.418 211.186 300.142 204.65C301.655 197.131 306.479 188.713 313.655 185.42C323.393 180.952 331.811 185.776 337.859 193.549C343.437 200.296 345.469 207.43 346.434 216.294C347.206 223.385 347.851 234.257 344.094 240.944C337.926 251.841 322.779 244.52 318.268 236.042" stroke="#F4EDE7" stroke-opacity="0.07" stroke-width="3" stroke-miterlimit="10"/>
<path d="M198.206 347.591C195.173 347.741 195.601 350.027 195.517 352.547C195.541 359.361 198.834 366.537 205.286 369.781C212.485 373.303 225.601 373.49 233.011 370.71C241.447 367.459 242.684 360.688 241.441 352.571C240.157 345.715 237.932 336.809 232.782 332.347C227.162 326.86 215.862 325.22 209.006 326.504C195.294 329.073 191.839 341.826 200.835 351.969" stroke="#F4EDE7" stroke-opacity="0.07" stroke-width="3" stroke-miterlimit="10"/>
<path d="M292.68 389.867C295.2 389.951 297.679 391.296 299.644 392.876C311.801 399.087 323.68 406.045 335.794 413.517C365.92 433.198 393.676 455.829 424.315 475.275C453.693 494.68 484.886 512.631 517.978 526.608C531.16 532.349 543.871 537.064 557.608 541.309C562.606 542.739 567.605 544.168 571.814 546.58" stroke="#F4EDE7" stroke-opacity="0.07" stroke-width="3" stroke-miterlimit="10"/>
<path d="M227.218 302.638C227.453 303.15 227.453 303.15 227.688 303.663C224.571 306.334 187.709 269.268 191.363 273.175C172.538 255.134 156.552 235.168 142.659 213.002C128.85 188.315 116.814 163.436 107.106 136.868C95.6671 109.232 85.5728 79.1185 69.0084 53.8348C66.6145 49.9696 63.6658 47.5998 64.5824 42.8361" stroke="#F4EDE7" stroke-opacity="0.07" stroke-width="3" stroke-miterlimit="10"/>
<path d="M157.761 168.845C153.058 158.594 145.834 148.258 147.474 136.958C148.753 128.926 153.962 124.054 162.658 128.13C169.622 131.139 173.705 137.332 177.787 143.525C181.164 148.18 184.734 154.608 183.262 160.867C182.388 164.37 178.909 170.31 175.086 171.443C166.179 173.669 159.233 162.585 156.411 156.435" stroke="#F4EDE7" stroke-opacity="0.07" stroke-width="3" stroke-miterlimit="10"/>
</svg>
