<svg width="818" height="835" viewBox="0 0 818 835" fill="none" xmlns="http://www.w3.org/2000/svg">
<path d="M430.666 387.498C429.834 388.828 429.169 388.412 428.504 387.995C426.758 387.827 424.348 387.243 422.602 387.075C418.029 386.988 413.624 385.155 409.051 385.068C402.732 384.813 395.58 385.887 388.845 386.297C378.867 387.452 370.802 387.029 361.159 384.693C352.181 382.772 343.371 379.106 334.561 375.44C332.566 374.191 329.739 374.272 328.161 372.358C326.832 371.525 326.583 370.444 325.254 369.612C321.93 367.53 319.271 365.865 315.947 363.783C309.547 360.701 303.396 358.7 297.413 354.953C292.343 352.704 287.69 349.79 283.452 346.211C279.464 343.713 279.383 340.886 280.135 336.729C279.893 328.248 278.322 318.934 277.415 310.037C276.589 303.967 275.763 297.896 276.683 291.994C277.186 286.756 277.441 280.437 277.945 275.2C278.032 270.627 280.449 263.811 284.277 260.655C285.606 261.487 285.855 262.568 286.768 264.066C290.67 271.137 296.901 275.965 301.219 282.371C306.867 289.609 312.682 295.102 319.578 300.347C325.562 304.093 331.128 308.505 337.696 309.841C351.911 312.265 365.046 314.937 379.094 319.107C393.142 323.277 404.443 330.354 417.074 338.264C422.392 341.595 425.132 346.087 429.369 349.666C430.948 351.58 432.277 352.412 433.855 354.326C434.769 355.824 435.682 357.321 436.179 359.483C439.583 364.392 441.242 369.133 442.484 374.538C443.646 377.117 443.975 381.025 442.726 383.019C439.812 387.673 433.493 387.418 430.666 387.498Z" stroke="#F4EDE7" stroke-opacity="0.07" stroke-width="3" stroke-miterlimit="10"/>
<path d="M443.149 374.956C445.391 377.286 448.467 378.286 451.542 379.287C456.364 380.455 462.683 380.71 467.423 379.051C472.58 376.728 476.824 372.907 481.733 369.502C488.971 363.855 497.54 359.04 505.443 353.809C509.935 351.069 515.092 348.745 519.336 344.925C522.747 342.433 524.829 339.109 526.246 335.369C529.576 330.051 528.999 325.061 529.254 318.743C529.59 315.251 530.174 312.84 531.174 309.765C532.343 304.943 534.176 300.538 536.425 295.468C540.924 285.328 546.255 273.859 545.933 262.551C545.772 256.897 543.448 251.74 542.622 245.67C542.461 240.016 541.635 233.946 540.809 227.875C540.48 223.967 539.566 222.47 536.659 219.723C534.664 218.474 532.005 216.809 530.011 215.56C526.935 214.56 523.027 214.889 520.2 214.969C511.719 215.211 503.07 217.199 495.086 219.603C490.345 221.262 484.94 222.504 481.361 226.741C477.782 230.979 474.203 235.216 469.959 239.037C465.299 243.522 461.471 246.678 454.568 248.834C445.087 252.151 435.189 256.134 426.869 262.03C423.458 264.521 421.793 267.18 418.381 269.672C416.468 271.25 414.554 272.828 412.64 274.406C406.899 279.14 399.58 281.96 394.503 287.111C391.341 290.683 388.01 296.002 387.507 301.239C385.586 310.217 389.488 317.288 395.719 322.116C400.621 326.112 406.356 328.777 411.674 332.108C418.322 336.271 423.473 341.348 428.872 347.505C432.693 351.749 435.433 356.241 437.756 361.398C438.669 362.896 438.918 363.977 439.831 365.474C440.744 366.971 441.906 369.55 443.236 370.383C442.484 374.539 443.149 374.956 443.149 374.956Z" stroke="#F4EDE7" stroke-opacity="0.07" stroke-width="3" stroke-miterlimit="10"/>
<path d="M415.057 267.591C414.392 267.175 412.397 265.926 411.733 265.51C410.155 263.596 408.496 258.855 407.999 256.693C406.589 253.033 405.843 249.79 405.514 245.882C404.937 240.893 403.943 236.568 404.03 231.996C404.117 227.423 404.372 221.104 406.205 216.699C407.622 212.958 410.785 209.386 413.283 205.397L432.85 174.152C435.764 169.498 438.43 163.764 442.257 160.608C447.582 156.538 451.577 151.636 457.151 148.648C461.227 146.573 465.719 143.833 470.043 142.839C473.287 142.094 476.282 140.267 479.109 140.187C481.271 139.69 484.346 140.69 486.092 140.858C490.249 141.61 493.324 142.611 496.4 143.611C501.886 145.196 507.372 146.78 512.442 149.03C516.182 150.446 519.923 151.863 522.83 154.61C525.738 157.356 528.478 161.848 530.969 165.259C533.46 168.671 535.952 172.082 538.443 175.493C540.021 177.407 541.848 180.402 543.009 182.98C544.171 185.559 545.998 188.553 546.743 191.797C548.153 195.456 550.228 199.532 550.557 203.441C550.887 207.349 550.799 211.921 550.047 216.078C550.209 221.732 550.37 227.386 550.531 233.04C549.779 237.197 546.616 240.769 544.535 244.093C542.87 246.753 543.783 248.25 540.788 250.076" stroke="#F4EDE7" stroke-opacity="0.07" stroke-width="3" stroke-miterlimit="10"/>
<path d="M552.369 221.238C559.447 209.936 565.443 198.883 576.093 190.744C582.499 186.427 589.402 184.271 595.391 180.618C599.884 177.878 603.046 174.306 606.209 170.733C607.458 168.739 608.956 167.825 610.204 165.831C611.87 163.172 612.87 160.097 615.2 157.854C617.53 155.611 618.779 153.616 621.855 154.617C624.682 154.536 626.011 155.369 626.092 158.196C626.421 162.104 623.755 167.839 622.339 171.579C619.505 179.06 616.423 185.459 613.589 192.94C609.339 204.16 603.094 214.132 598.844 225.353C597.259 230.839 596.091 235.661 593.841 240.731C587.012 253.113 579.519 265.079 572.025 277.046C566.197 286.353 559.952 296.325 554.123 305.632C549.544 312.945 544.716 319.176 539.223 324.991C536.893 327.234 535.228 329.894 532.152 328.893C529.742 328.309 526.666 327.308 525.088 325.395C529.339 314.174 537.329 304.37 543.99 293.733C547.321 288.415 550.651 283.096 553.982 277.778C556.063 274.454 558.394 272.211 560.475 268.887C562.14 266.228 563.389 264.234 565.055 261.575C567.553 257.586 570.715 254.013 573.213 250.025C576.127 245.371 578.377 240.301 581.956 236.064C582.789 234.734 583.869 234.486 585.118 232.491C586.367 230.497 587.616 228.503 588.449 227.173C591.779 221.855 595.526 215.872 599.522 210.97C601.852 208.727 603.269 204.986 605.599 202.744C606.848 200.749 607.68 199.42 608.929 197.425C609.762 196.096 611.259 195.183 612.092 193.853C612.925 192.523 614.174 190.529 615.006 189.199" stroke="#F4EDE7" stroke-opacity="0.07" stroke-width="3" stroke-miterlimit="10"/>
<path d="M387.42 305.813C384.76 304.147 382.766 302.899 380.107 301.233C374.54 296.822 371.8 292.329 367.731 287.004C365.904 284.01 362.997 281.263 360.089 278.517C357.846 276.187 355.187 274.521 352.528 272.856C348.955 269.693 346.464 266.282 345.47 261.958C343.811 257.217 341.736 253.141 337.916 248.898C336.337 246.984 333.678 245.318 331.684 244.07C328.36 241.988 324.203 241.236 320.047 240.484C313.896 238.483 307.328 237.147 300.761 235.81C295.275 234.226 290.286 234.804 284.799 233.219C282.389 232.635 279.562 232.715 277.151 232.131C274.74 231.547 271.665 230.547 268.838 230.627C265.346 230.291 261.438 230.621 257.778 232.031C255.2 233.192 253.535 235.852 252.95 238.262C250.869 241.586 251.943 248.738 253.354 252.397C255.012 257.138 257.752 261.63 260.492 266.123C264.393 273.194 266.797 281.178 268.537 288.746C270.028 295.232 270.021 302.632 276.253 307.46L275.837 308.125" stroke="#F4EDE7" stroke-opacity="0.07" stroke-width="3" stroke-miterlimit="10"/>
<path d="M387.419 305.814C384.759 304.149 382.765 302.9 380.106 301.234C374.539 296.823 371.799 292.33 367.73 287.005C365.903 284.011 362.996 281.264 360.088 278.518C357.845 276.188 355.186 274.522 352.527 272.857C348.954 269.694 346.463 266.283 345.469 261.959C343.81 257.218 341.735 253.142 337.915 248.899C336.337 246.985 333.677 245.32 331.683 244.071C325.7 240.324 315.305 242.144 313.982 233.911C313.156 227.841 313.411 221.522 313.25 215.868C313.088 210.214 313.176 205.641 314.76 200.155C315.761 197.079 317.177 193.339 317.513 189.847C319.682 181.95 323.597 174.221 325.765 166.324C326.35 163.914 326.934 161.503 328.183 159.509C329.015 158.179 330.264 156.185 331.097 154.855C332.346 152.861 334.676 150.618 335.26 148.207C335.428 146.461 335.596 144.715 337.51 143.137C339.423 141.559 341.586 141.062 343.58 142.311C346.656 143.312 349.563 146.058 352.887 148.139L364.189 155.217C374.825 161.878 384.381 168.788 393.104 177.027C396.676 180.189 400.081 185.098 402.821 189.59C404.647 192.585 407.555 195.332 408.965 198.991C409.878 200.489 410.375 202.651 411.289 204.148C412.202 205.646 415.277 206.646 412.947 208.889" stroke="#F4EDE7" stroke-opacity="0.07" stroke-width="3" stroke-miterlimit="10"/>
<path d="M397.995 287.447C396.665 286.614 395.336 285.781 394.006 284.949C392.428 283.035 391.682 279.792 391.185 277.63C390.689 275.467 390.44 274.386 389.943 272.224C389.695 271.143 388.782 269.645 388.949 267.899C393.522 267.987 398.176 270.901 401.5 272.983C402.829 273.815 410.558 277.73 409.309 279.724L408.645 279.308" stroke="#F4EDE7" stroke-opacity="0.07" stroke-width="3" stroke-miterlimit="10"/>
<path d="M429.616 259.121C427.621 257.872 426.292 257.039 425.13 254.461C423.303 251.466 424.304 248.39 424.64 244.898C425.224 242.488 424.062 239.909 423.981 237.082C424.149 235.336 425.23 235.088 427.225 236.337C429.884 238.002 432.543 239.667 433.705 242.246C434.618 243.743 435.115 245.905 436.028 247.403C436.942 248.9 437.855 250.398 438.768 251.895C439.93 254.474 438.432 255.387 437.183 257.381" stroke="#F4EDE7" stroke-opacity="0.07" stroke-width="3" stroke-miterlimit="10"/>
<path d="M385.912 314.129C381.258 311.215 376.189 308.966 372.368 304.722C370.125 302.392 368.131 301.143 366.136 299.894C364.142 298.645 362.563 296.731 360.985 294.817C358.743 292.487 356.003 287.995 355.257 284.752C355.009 283.671 354.096 282.173 354.512 281.508L356.177 278.849C356.594 278.185 357.258 278.601 357.923 279.017C359.004 278.769 360.75 278.936 361.415 279.353C362.08 279.769 362.745 280.185 363.409 280.602C364.074 281.018 364.49 280.353 365.155 280.769C365.82 281.186 366.485 281.602 367.15 282.018C367.815 282.435 368.896 282.186 370.225 283.019C371.555 283.852 372.884 284.684 374.214 285.517C376.873 287.182 379.781 289.928 381.359 291.842C383.602 294.172 385.012 297.832 387.671 299.497L387.006 299.081" stroke="#F4EDE7" stroke-opacity="0.07" stroke-width="3" stroke-miterlimit="10"/>
<path d="M441.642 383.273C443.636 384.522 446.047 385.106 447.625 387.02C448.538 388.517 449.7 391.096 451.278 393.009C452.856 394.923 454.018 397.502 456.261 399.832C462.157 408.152 466.307 416.304 472.203 424.623C475.856 430.613 477.179 438.845 479.334 445.748C480.328 450.073 481.571 455.479 483.646 459.555C485.224 461.468 486.137 462.966 487.715 464.879C491.368 470.869 493.772 478.853 496.593 486.172C500.326 494.989 502.979 504.054 506.713 512.871C509.117 520.855 511.273 527.758 513.26 536.407C514.503 541.813 517.243 546.305 518.901 551.046C520.808 556.868 522.051 562.273 523.958 568.095C526.281 573.252 527.524 578.658 528.766 584.063C529.592 590.133 530.418 596.204 531.909 602.69C532.903 607.015 533.897 611.339 535.972 615.415C537.631 620.156 538.625 624.481 540.948 629.638C547.838 642.282 547.825 657.082 551.055 671.136C552.049 675.46 554.124 679.537 555.118 683.861C555.366 684.942 555.863 687.104 557.193 687.937L556.777 688.602C555.615 686.023 568.427 677.387 567.265 674.809C565.526 667.241 562.04 659.506 559.636 651.521C556.984 642.456 554.331 633.391 551.679 624.326C549.691 615.677 546.622 607.276 545.299 599.044C544.553 595.801 544.889 592.309 544.144 589.066C543.647 586.903 542.733 585.406 541.82 583.908C540.658 581.33 541.659 578.254 540.497 575.676C539.752 572.432 539.423 568.524 538.013 564.865C534.118 550.394 529.141 536.172 522.668 522.863C516.611 508.889 511.386 493.586 506.41 479.363C504.254 472.46 502.099 465.557 499.527 459.319C496.955 453.081 492.221 447.34 489.649 441.102C484.834 432.533 481.1 423.716 476.285 415.148C474.21 411.072 473.216 406.748 471.141 402.672C469.98 400.093 468.402 398.18 466.575 395.185C465.413 392.606 463.835 390.692 462.673 388.114C462.177 385.952 459.933 383.622 460.518 381.211" stroke="#F4EDE7" stroke-opacity="0.07" stroke-width="3" stroke-miterlimit="10"/>
<path d="M332.473 569.42C329.975 573.409 328.31 576.068 323.569 577.727C316.25 580.547 309.844 584.865 302.773 588.766C293.789 594.246 281.648 595.898 271.421 595.972C267.929 595.637 266.6 594.804 263.524 593.803C262.859 593.387 259.616 594.133 259.119 591.97C258.871 590.889 261.617 587.982 262.033 587.317C266.197 580.669 271.689 574.854 276.517 568.622C279.432 563.968 283.427 559.066 284.595 554.245C285.596 551.169 284.434 548.591 283.688 545.348C282.198 538.861 283.534 532.294 284.87 525.727C286.206 519.159 286.877 512.176 289.295 505.36C290.295 502.284 290.879 499.874 292.545 497.214C293.794 495.22 295.956 494.723 297.87 493.145C301.281 490.654 303.362 487.33 305.444 484.006C308.774 478.687 311.689 474.034 315.019 468.715C322.097 457.414 328.509 445.696 335.587 434.395C336.836 432.4 337.42 429.99 340.247 429.909C343.074 429.828 344.652 431.742 345.981 432.575C351.964 436.322 354.12 443.225 356.692 449.463C357.854 452.041 359.432 453.955 360.177 457.198C360.426 458.28 360.258 460.025 361.171 461.523C361.668 463.685 363.662 464.934 364.159 467.096C365.986 470.091 368.229 472.421 370.304 476.497C372.627 481.654 371.708 487.557 370.788 493.459C370.116 500.443 368.532 505.929 367.86 512.913C367.525 516.404 365.859 519.064 364.859 522.139C363.442 525.879 362.442 528.955 361.025 532.695C358.359 538.43 355.029 543.748 351.282 549.731C349.617 552.39 348.616 555.466 346.702 557.044C344.789 558.622 342.875 560.2 341.377 561.113C339.296 564.437 335.052 568.258 332.473 569.42Z" stroke="#F4EDE7" stroke-opacity="0.07" stroke-width="3" stroke-miterlimit="10"/>
<path d="M321.072 581.715C320.239 583.045 318.99 585.04 318.158 586.369C315.66 590.358 312.665 592.184 309.254 594.676C297.106 603.728 285.624 613.196 271.65 619.253C261.336 623.9 249.86 625.969 239.546 630.616C236.967 631.778 233.059 632.107 230.481 633.268C227.902 634.43 224.907 636.257 222.994 637.835C217.42 640.823 212.512 644.228 206.938 647.216C197.705 651.614 185.981 652.602 175.505 651.595C176.338 650.265 176.754 649.6 177.587 648.271C178.42 646.941 180.166 647.109 180.998 645.779C182.912 644.201 184.826 642.623 186.323 641.71C192.313 638.057 196.805 635.317 200.136 629.999C202.217 626.675 202.969 622.518 206.132 618.946C210.295 612.298 220.441 609.397 227.761 606.576C230.339 605.414 232.918 604.253 235.496 603.091C237.659 602.594 239.821 602.097 241.318 601.184C243.897 600.022 244.481 597.611 247.059 596.45C250.054 594.623 253.714 593.213 256.957 592.468C259.12 591.971 263.195 589.896 265.606 590.48" stroke="#F4EDE7" stroke-opacity="0.07" stroke-width="3" stroke-miterlimit="10"/>
<path d="M233.751 602.923C233.086 602.507 231.757 601.675 230.427 600.842C227.351 599.841 223.443 600.171 219.535 600.5C215.627 600.829 211.47 600.077 206.898 599.99C200.579 599.734 194.925 599.896 189.687 599.392C186.86 599.473 183.784 598.472 180.957 598.553C179.212 598.385 176.385 598.466 174.639 598.298C172.893 598.13 171.315 596.216 170.65 595.8C168.656 594.551 166.245 593.967 163.834 593.383C157.683 591.382 151.284 588.3 145.133 586.299C139.647 584.714 135.906 583.297 131.253 580.383C127.264 577.885 123.275 575.387 119.286 572.889C109.979 567.061 97.8452 561.313 96.1931 549.173C95.367 543.102 95.2057 537.448 97.2067 531.297C98.6234 527.557 101.37 524.649 103.035 521.99L110.529 510.024L123.851 488.75C128.43 481.438 131.929 474.374 139.416 469.807C141.995 468.645 143.908 467.067 146.735 466.987C149.979 466.241 153.222 465.496 156.049 465.415C158.876 465.335 163.033 466.086 166.108 467.087C170.93 468.255 175.751 469.424 180.156 471.257C191.625 476.588 202.759 485.412 215.894 488.084C224.872 490.004 233.017 493.254 241.162 496.504C246.648 498.089 251.302 501.003 256.788 502.588C261.193 504.421 266.015 505.589 270.003 508.087C275.987 511.834 281.97 515.58 287.288 518.911" stroke="#F4EDE7" stroke-opacity="0.07" stroke-width="3" stroke-miterlimit="10"/>
<path d="M147.487 462.83C145.492 461.581 144.163 460.748 142.585 458.834C141.671 457.337 140.342 456.504 140.093 455.423C138.515 453.509 135.856 451.844 134.694 449.266C131.538 445.438 129.88 440.697 128.221 435.957C125.897 430.8 123.157 426.307 120.834 421.15C119.007 418.155 117.597 414.496 115.771 411.501C114.858 410.003 112.863 408.754 112.366 406.592C111.453 405.095 109.21 402.765 108.297 401.267C107.135 398.689 106.638 396.527 106.557 393.7C106.477 390.873 106.06 391.537 103.818 389.207C104.234 388.543 104.65 387.878 103.985 387.461C102.656 386.629 103.072 385.964 102.159 384.466C101.246 382.969 100.829 383.634 99.916 382.137C100.997 381.888 101.662 382.304 103.408 382.472C106.9 382.808 110.808 382.479 114.3 382.814C118.873 382.902 123.029 383.654 127.77 381.995C130.348 380.833 133.592 380.088 135.754 379.591C140.078 378.597 144.987 375.192 149.56 375.279C156.295 374.87 162.446 376.871 169.013 378.207C174.251 378.71 177.743 379.046 183.148 377.804C188.97 375.897 193.879 372.492 200.366 371.001C207.933 369.262 214.998 372.76 220.316 376.091C232.947 384.001 245.162 392.576 258.377 398.075C264.112 400.741 269.846 403.406 273.667 407.65C277.488 411.894 281.309 416.138 285.546 419.717C290.448 423.712 295.35 427.707 300.252 431.703C305.154 435.698 307.894 440.19 311.299 445.099C313.79 448.51 316.698 451.257 319.189 454.668C320.102 456.165 321.264 458.744 322.594 459.576" stroke="#F4EDE7" stroke-opacity="0.07" stroke-width="3" stroke-miterlimit="10"/>
<path d="M215.911 374.259C214.581 373.427 212.17 372.842 211.673 370.68C211.176 368.518 212.593 364.778 212.761 363.032C213.097 359.54 211.27 356.545 211.606 353.053C211.525 350.226 212.526 347.151 212.445 344.324C212.116 340.416 212.452 336.924 213.869 333.184C214.869 330.108 216.534 327.449 218.2 324.79C219.865 322.131 220.865 319.055 222.947 315.731C225.445 311.742 227.526 308.418 230.938 305.927C234.765 302.771 238.257 303.107 242.83 303.194C246.322 303.53 250.23 303.2 254.386 303.952C258.543 304.704 263.532 304.127 267.272 305.544C271.013 306.96 272.839 309.955 276.163 312.037C275.747 312.702 274.914 314.031 274.498 314.696" stroke="#F4EDE7" stroke-opacity="0.07" stroke-width="3" stroke-miterlimit="10"/>
<path d="M369.31 472.173C371.64 469.93 371.311 466.022 372.312 462.946C373.977 460.287 375.642 457.628 377.059 453.888C377.643 451.477 378.476 450.147 379.06 447.736C381.309 442.667 382.478 437.845 384.311 433.44C385.976 430.781 386.976 427.705 386.896 424.878C387.567 417.895 382.417 412.819 382.007 406.083C381.181 400.013 381.684 394.775 375.701 391.028C373.042 389.363 370.135 386.617 367.059 385.616C365.729 384.784 359.162 383.447 358.33 384.777C364.81 390.686 366.133 398.919 367.872 406.487C368.866 410.811 370.028 413.389 369.94 417.962C369.605 421.454 369.934 425.362 369.847 429.935C369.591 436.254 368.255 442.821 367.336 448.724C365.919 452.464 363.172 455.372 369.31 472.173Z" stroke="#F4EDE7" stroke-opacity="0.07" stroke-width="3" stroke-miterlimit="10"/>
<path d="M281.695 544.098C280.03 546.757 279.365 546.34 276.787 547.502C272.711 549.577 268.218 552.317 264.142 554.392C258.985 556.716 251.337 555.628 246.012 559.697C253.338 549.477 259.334 538.424 265.995 527.787C268.493 523.798 273.066 523.886 277.639 523.973C279.385 524.141 280.466 523.892 282.212 524.06C283.958 524.228 283.542 524.893 285.455 523.315C286.704 521.32 289.451 518.412 288.289 515.834C286.462 512.839 281.473 513.417 278.646 513.497C272.079 512.161 265.76 511.906 258.608 512.981C251.457 514.055 244.306 515.13 237.154 516.204C233.911 516.95 230.003 517.279 226.927 516.278C223.852 515.278 220.279 512.115 217.62 510.45C214.296 508.368 213.215 508.617 215.296 505.293C219.46 498.645 226.692 500.397 233.011 500.652C237.584 500.74 241.492 500.411 245.4 500.082C251.054 499.92 256.124 502.17 261.194 504.419C263.188 505.668 265.599 506.252 267.345 506.42C269.091 506.588 271.085 507.837 272.414 508.67C275.49 509.67 278.068 508.508 280.896 508.428C281.977 508.179 282.641 508.595 283.722 508.347C285.468 508.515 285.885 507.85 286.717 506.52C287.55 505.191 291.129 500.953 290.216 499.456C289.551 499.04 287.557 497.791 286.227 496.958C284.233 495.709 282.238 494.46 280.244 493.211L266.283 484.469C263.624 482.803 260.716 480.057 257.641 479.057C255.23 478.472 253.484 478.304 251.074 477.72C245.171 476.8 239.269 475.881 233.782 474.296C230.707 473.296 225.469 472.792 222.978 469.381C222.065 467.883 222.065 467.883 222.897 466.554C224.562 463.895 226.06 462.981 229.968 462.652C236.703 462.243 243.519 464.66 250.086 465.996C254.243 466.748 257.983 468.165 261.723 469.582C265.047 471.663 268.371 473.745 271.695 475.826C273.69 477.075 275.684 478.324 277.014 479.157C279.008 480.406 279.921 481.903 281.916 483.152C283.91 484.401 285.24 485.234 286.153 486.731C287.483 487.564 288.396 489.061 289.725 489.894C290.39 490.31 291.968 492.224 293.714 492.392C295.46 492.56 295.628 490.814 296.461 489.484C298.542 486.16 299.623 485.912 296.299 483.83C292.311 481.332 289.154 477.505 286.247 474.758C283.091 470.931 278.605 466.271 276.946 461.53C276.201 458.287 275.872 454.378 275.126 451.135C274.629 448.973 273.051 447.059 271.889 444.481C270.728 441.902 267.988 437.41 269.653 434.751C270.902 432.756 271.151 433.838 272.48 434.67C274.475 435.919 276.469 437.168 278.463 438.417C281.122 440.082 285.528 441.915 286.689 444.494C287.851 447.072 289.261 450.732 289.758 452.894C291.417 457.635 290.914 462.873 293.653 467.365C294.815 469.944 295.48 470.36 297.474 471.609C299.468 472.858 300.382 474.355 302.376 475.604C304.619 477.934 306.862 480.264 308.44 482.178L308.024 482.843" stroke="#F4EDE7" stroke-opacity="0.07" stroke-width="3" stroke-miterlimit="10"/>
<path d="M308.688 483.259C313.174 487.919 332.024 515.457 337.174 520.534C345.897 528.773 354.204 537.677 363.591 546.332C371.401 553.074 379.627 559.151 387.188 564.811C391.842 567.726 398.906 571.224 401.646 575.716C404.386 580.209 409.872 581.793 414.526 584.707L451.754 608.021L463.055 615.099C467.044 617.596 471.449 619.429 475.022 622.592C476.351 623.425 477.264 624.922 478.594 625.755C479.259 626.171 480.172 627.669 480.837 628.085C481.502 628.501 482.831 629.334 483.496 629.75" stroke="#F4EDE7" stroke-opacity="0.07" stroke-width="3" stroke-miterlimit="10"/>
<path d="M234.191 389.404C227.295 384.159 221.647 376.921 216 369.682C210.601 363.524 205.618 356.702 200.635 349.88C196.566 344.555 193.578 338.981 190.173 334.073C187.682 330.662 184.109 327.499 181.618 324.088C179.127 320.677 177.716 317.017 175.225 313.606C172.485 309.114 168.664 304.87 165.925 300.377C163.682 298.047 163.682 298.047 165.595 296.469C167.509 294.891 167.093 295.556 169.087 296.805C174.406 300.135 180.389 303.882 185.707 307.213C197.009 314.29 205.564 324.275 215.616 333.347C224.339 341.586 232.646 350.49 240.952 359.394C250.837 370.212 259.224 381.943 268.028 393.009C277.496 404.491 288.462 415.061 296.849 426.791C300.919 432.116 304.572 438.106 308.89 444.512C313.207 450.918 317.774 458.405 322.924 463.482C326.081 467.309 327.907 470.304 329.982 474.38C334.051 479.705 339.202 484.781 342.855 490.771C347.421 498.258 352.653 506.162 357.219 513.649C375.652 541.852 395.831 570.222 415.762 597.511C419.166 602.42 422.323 606.247 426.144 610.491C431.791 617.73 438.52 624.72 445.248 631.71C451.977 638.7 472.417 653.352 480.395 658.348L481.644 656.354C482.476 655.024 483.309 653.694 484.142 652.365C484.31 650.619 483.813 648.457 484.397 646.046C484.732 642.554 485.068 639.063 484.323 635.819C484.242 632.992 484.161 630.165 484.081 627.338" stroke="#F4EDE7" stroke-opacity="0.07" stroke-width="3" stroke-miterlimit="10"/>
<path d="M407.97 385.316C409.299 386.148 419.271 392.393 420.849 394.307C423.589 398.799 426.745 402.626 429.485 407.119C440.693 426.169 448.489 447.711 458.199 467.674C475.048 501.363 494.475 533.89 502.923 570.648C504.663 578.215 507.235 584.454 508.725 590.94C509.471 594.184 512.379 596.93 513.54 599.509C514.95 603.168 516.777 606.163 517.523 609.406C518.933 613.066 520.343 616.726 521.753 620.385C522.915 622.964 523.412 625.126 523.909 627.288C524.157 628.369 524.406 629.451 524.406 629.451C524.654 630.532 523.573 630.78 523.822 631.861C525.232 635.521 530.47 636.024 533.129 637.69C536.453 639.771 540.025 642.934 543.101 643.934C543.933 642.605 543.02 641.108 541.69 640.275C539.615 636.199 537.789 633.204 535.714 629.128C524.674 608.332 517.71 585.461 511.411 563.006C505.112 540.551 497.564 520.09 489.103 498.133C482.051 479.834 472.173 461.617 465.539 442.654C462.221 433.172 458.239 423.274 454.922 413.793C453.511 410.133 451.685 407.138 450.691 402.814C449.281 399.154 448.119 396.576 446.292 393.581C444.714 391.667 444.466 390.586 442.888 388.672C442.223 388.256 441.975 387.175 441.31 386.759C440.645 386.342 439.315 385.51 438.65 385.093L439.067 384.428" stroke="#F4EDE7" stroke-opacity="0.07" stroke-width="3" stroke-miterlimit="10"/>
<path d="M373.126 483.814C389.068 508.606 417.534 568.08 440.299 587.889C446.114 593.381 450.848 599.123 455.582 604.864C460.068 609.524 463.889 613.768 468.375 618.428C472.195 622.672 477.93 625.337 482.584 628.252" stroke="#F4EDE7" stroke-opacity="0.07" stroke-width="3" stroke-miterlimit="10"/>
</svg>
