<svg width="742" height="604" viewBox="0 0 742 604" fill="none" xmlns="http://www.w3.org/2000/svg">
<path d="M650.006 273.843C647.239 281.951 625.323 281.055 619.66 280.768C572.343 284.369 525.816 280.833 479.342 269.908C435.817 259.99 390.835 247.105 350.077 229.078C329.455 219.57 311.062 208.354 293.676 194.189C290.494 191.457 274.313 180.996 277.8 175.602C281.035 170.946 296.55 171.303 300.739 171.087C319.22 169.988 338.169 172.341 357.369 173.957C383.959 175.626 409.56 177.78 435.88 182.649C456.788 186.494 477.949 189.601 497.114 196.143C512.845 200.69 528.576 205.236 544.307 209.783C571.095 218.103 598.368 227.413 624.15 238.682C630.532 241.683 635.458 241.719 640.097 247.417C643.028 250.886 645.222 254.104 647.901 258.311C650.58 262.517 658.419 268.485 664.334 268.035C663.363 266.057 664.351 265.572 650.006 273.843Z" stroke="#F4EDE7" stroke-opacity="0.17" stroke-width="3" stroke-miterlimit="10"/>
<path d="M665.886 326.176C650.786 336.659 633.007 342.936 617.655 354.155C594.879 370.248 570.108 389.775 554.919 412.573C543.721 428.503 533.745 445.673 523.033 462.591C521.037 466.025 512.589 476.309 515.268 480.516C523.646 480.083 531.322 474.473 538.243 471.075C555.303 462.084 572.848 454.081 590.645 445.342C633.16 424.465 678.355 407.794 715.997 379.493C731.348 368.273 750.907 354.373 759.66 335.963C762.661 329.581 764.423 324.421 769.887 318.056C772.619 314.874 777.815 311.709 778.587 307.035C776.879 304.806 762.084 307.162 759.621 307.145C745.328 308.027 729.292 311.607 715.72 315.204C705.599 318.333 695.711 323.188 686.076 327.307C682.372 328.511 672.754 330.167 665.886 326.176Z" stroke="#F4EDE7" stroke-opacity="0.17" stroke-width="3" stroke-miterlimit="10"/>
<path d="M767.525 235.77C764.307 237.964 761.358 236.957 757.421 236.436C741.187 233.364 723.244 228.063 707.028 222.527C675.583 210.971 646.403 192.781 619.452 172.883C592.501 152.985 565.801 132.349 542.823 108.046L529.625 93.6652C525.22 89.6926 521.804 85.2346 520.114 80.5425C520.401 74.8795 527.304 73.9438 531.493 73.7276C559.358 69.2478 589.293 85.2266 615.344 93.2955C627.875 97.5728 640.406 101.85 652.182 108.339C666.655 116.571 679.87 128.489 691.863 139.166C699.935 146.86 707.757 155.29 715.578 163.721C725.845 174.632 736.129 183.081 748.625 192.284C756.464 198.251 765.04 204.471 770.398 212.884C772.826 217.827 775.254 222.771 778.67 227.229C780.126 230.195 784.999 237.62 789.44 236.666C789.457 234.203 788.72 233.952 767.525 235.77Z" stroke="#F4EDE7" stroke-opacity="0.17" stroke-width="3" stroke-miterlimit="10"/>
<path d="M459.012 151.043C453.367 148.293 447.938 149.732 442.041 147.719C433.195 144.7 424.385 136.755 418.523 129.816C412.428 121.152 408.579 108.316 412.102 97.9963C416.882 83.991 429.718 80.1423 443.255 81.4711C455.318 82.2966 464.398 87.0416 474.197 94.5013C482.036 100.469 493.543 110.158 496.672 120.279C501.726 136.818 479.992 145.036 467.209 141.496" stroke="#F4EDE7" stroke-opacity="0.17" stroke-width="3" stroke-miterlimit="10"/>
<path d="M464.845 367.836C462.113 371.018 464.81 372.762 467.255 375.243C474.105 381.696 484.425 385.218 493.809 381.837C504.182 377.971 516.837 365.007 521.096 354.939C525.859 343.397 520.249 335.721 510.936 329.25C502.845 324.019 491.806 317.783 482.44 318.7C471.599 319.115 459.214 328.879 453.983 336.969C443.522 353.151 453.016 368.736 471.731 369.363" stroke="#F4EDE7" stroke-opacity="0.17" stroke-width="3" stroke-miterlimit="10"/>
<path d="M597.013 313.365C599.494 310.92 603.197 309.715 606.649 309.247C624.428 302.971 642.693 297.683 661.695 292.647C710.054 281.171 759.115 274.873 807.725 262.661C855.096 251.671 902.735 237.48 948.199 217.61C966.481 209.859 983.29 201.605 1000.6 191.877C1006.79 188.227 1012.97 184.577 1019.39 182.652" stroke="#F4EDE7" stroke-opacity="0.17" stroke-width="3" stroke-miterlimit="10"/>
<path d="M447.382 296.034C448.12 296.285 448.119 296.285 448.857 296.537C448.57 302.2 376.389 303.898 383.778 303.951C347.804 305.664 312.603 302.701 277.186 295.55C239.324 285.919 202.953 274.327 167.104 258.799C128.539 243.989 88.7703 225.477 47.6901 218.039C41.5415 216.763 36.3639 217.465 32.4621 212.018" stroke="#F4EDE7" stroke-opacity="0.17" stroke-width="3" stroke-miterlimit="10"/>
<path d="M247.298 238.44C232.556 233.408 215.333 230.822 205.569 218.436C198.737 209.52 198.807 199.668 211.157 194.83C220.793 190.712 230.879 192.509 240.965 194.306C248.839 195.347 258.673 197.881 263.546 205.305C266.225 209.512 268.869 218.644 266.371 223.552C260.134 234.592 242.425 231.016 233.58 227.997" stroke="#F4EDE7" stroke-opacity="0.17" stroke-width="3" stroke-miterlimit="10"/>
</svg>
