<svg width="180" height="14" viewBox="0 0 180 14" fill="none" xmlns="http://www.w3.org/2000/svg">
<path d="M0 9.20044H2.23439C2.23439 10.1862 3.22015 11.1062 4.60022 11.1062C5.91457 11.1062 6.70318 10.3834 6.70318 9.39759C6.70318 8.47755 5.91457 8.01753 4.86309 7.68894L3.28587 7.1632C0.591457 6.44031 0.0657174 4.79737 0.0657174 3.74589C0.0657174 1.5115 2.03724 0 4.40307 0C6.70318 0 8.54327 1.44578 8.54327 3.81161H6.30887C6.30887 2.76013 5.52026 1.97152 4.33735 1.97152C3.22015 1.97152 2.36583 2.6287 2.36583 3.61446C2.36583 3.94305 2.49726 4.73166 3.94305 5.06024L5.45455 5.45455C7.42607 5.98029 9.00329 7.09748 9.00329 9.13472C9.00329 11.4348 7.03177 13.0121 4.5345 13.0121C1.84009 13.0778 0 11.3034 0 9.20044Z" fill="#597458"/>
<path d="M21.8838 9.7919H16.8893L15.7721 12.8806H13.3406L18.1379 0.131439H20.5695L25.3669 12.8806H23.001L21.8838 9.7919ZM21.161 7.82038L19.3209 2.69442L17.4808 7.82038H21.161Z" fill="#597458"/>
<path d="M32.9243 0.131439H30.6899V12.8806H32.9243V0.131439Z" fill="#597458"/>
<path d="M49.3539 0.131439V12.8806H47.2509L42.1907 4.33736V12.8806H39.9563V0.131439H42.0593L47.0538 8.67471V0.131439H49.3539Z" fill="#597458"/>
<path d="M64.6003 2.16868H60.9859V12.8806H58.7515V2.16868H55.0713V0.131439H64.6003V2.16868Z" fill="#597458"/>
<path d="M84.3812 9.79189H79.3866L78.2694 12.9463H75.8379L80.6353 0.197144H83.0668L87.8642 12.9463H85.4984L84.3812 9.79189ZM83.724 7.82036L81.8839 2.69441L80.0438 7.82036H83.724Z" fill="#597458"/>
<path d="M102.585 0.131439V12.8806H100.548L95.4216 4.33736V12.8806H93.1873V0.131439H95.2902L100.35 8.67471V0.131439H102.585Z" fill="#597458"/>
<path d="M109.617 0.131439H114.611C118.226 0.131439 120.394 2.89157 120.394 6.50603C120.394 10.1205 118.291 12.8149 114.611 12.8149H109.617V0.131439ZM114.546 10.8434C116.846 10.8434 118.029 8.87186 118.029 6.50603C118.029 4.1402 116.846 2.10296 114.546 2.10296H111.785V10.7777H114.546V10.8434Z" fill="#597458"/>
<path d="M129.989 8.21468H128.872V12.8806H126.637V0.131439H131.632C134.458 0.131439 135.706 2.16868 135.706 4.20592C135.706 6.04601 134.786 7.75466 132.552 8.14897L135.904 12.8806H133.209L129.989 8.21468ZM128.872 6.30888H131.172C132.749 6.30888 133.406 5.38883 133.406 4.27164C133.406 3.08872 132.683 2.16868 131.435 2.16868H128.872V6.30888Z" fill="#597458"/>
<path d="M149.967 10.8434V12.8806H142.015V0.131439H149.836V2.16868H144.25V5.58599H149.113V7.62323H144.25V10.8434H149.967Z" fill="#597458"/>
<path d="M163.111 9.79189H158.116L156.999 12.9463H154.567L159.365 0.197144H161.796L166.594 12.9463H164.228L163.111 9.79189ZM162.453 7.82036L160.613 2.69441L158.773 7.82036H162.453Z" fill="#597458"/>
<path d="M170.997 9.20044H173.231C173.231 10.1862 174.217 11.1062 175.597 11.1062C176.911 11.1062 177.7 10.3834 177.7 9.39759C177.7 8.47755 176.911 8.01753 175.86 7.68894L174.283 7.22892C171.523 6.50603 171.063 4.86309 171.063 3.74589C171.063 1.5115 173.034 0 175.4 0C177.7 0 179.54 1.44578 179.54 3.81161H177.306C177.306 2.76013 176.517 1.97152 175.334 1.97152C174.217 1.97152 173.363 2.6287 173.363 3.61446C173.363 3.94305 173.494 4.73166 174.94 5.06024L176.451 5.45455C178.423 5.98029 180 7.09748 180 9.13472C180 11.4348 178.029 13.0121 175.531 13.0121C172.837 13.0778 170.997 11.3034 170.997 9.20044Z" fill="#597458"/>
</svg>
