<svg width="85" height="3" viewBox="0 0 85 3" fill="none" xmlns="http://www.w3.org/2000/svg">
<path d="M0 1.77419C2.25564 1.77419 2.25564 2 4.47368 2C6.69173 2 6.69173 1.90323 8.94737 1.90323C11.203 1.90323 11.1654 1.48387 13.4211 1.48387C15.6391 1.48387 15.6767 1.74194 17.8947 1.70968C20.1128 1.70968 20.1128 1.58065 22.3684 1.54839C24.6241 1.54839 24.6241 1.54839 26.8421 1.54839C29.0977 1.54839 29.0977 1.83871 31.3158 1.83871C33.5714 1.83871 33.5338 1.64516 35.7895 1.64516C38.0451 1.64516 38.0451 1.87097 40.2632 1.83871C42.5188 1.83871 42.4812 1.51613 44.7368 1.51613C46.9925 1.51613 46.9549 1.22581 49.2105 1.22581C51.4662 1.22581 51.4662 1.32258 53.6842 1.32258C55.9398 1.32258 55.9398 1.67742 58.1579 1.64516C60.3759 1.64516 60.4135 1.67742 62.6316 1.64516C64.8872 1.64516 64.8872 1.67742 67.1053 1.67742C69.3609 1.67742 69.3233 1.09677 71.5789 1.09677C73.8346 1.09677 73.8346 1.58065 76.0526 1.54839C78.3083 1.54839 78.3083 1 80.5263 1C82.7819 1 82.782 1.41935 85 1.41935" stroke="#F4EDE7" stroke-width="0.7" stroke-miterlimit="10"/>
</svg>
