<svg width="417" height="7" viewBox="0 0 417 7" fill="none" xmlns="http://www.w3.org/2000/svg">
<path d="M0 4.87097C11.0659 4.87097 11.0659 6 21.9474 6C32.8288 6 32.8288 5.51613 43.8947 5.51613C54.9606 5.51613 54.7762 3.41935 65.8421 3.41935C76.7236 3.41935 76.908 4.70968 87.7895 4.54839C98.6709 4.54839 98.6709 3.90323 109.737 3.74194C120.803 3.74194 120.803 3.74194 131.684 3.74194C142.75 3.74194 142.75 5.19355 153.632 5.19355C164.697 5.19355 164.513 4.22581 175.579 4.22581C186.645 4.22581 186.645 5.35484 197.526 5.19355C208.592 5.19355 208.408 3.58065 219.474 3.58065C230.54 3.58065 230.355 2.12903 241.421 2.12903C252.487 2.12903 252.487 2.6129 263.368 2.6129C274.434 2.6129 274.434 4.3871 285.316 4.22581C296.197 4.22581 296.382 4.3871 307.263 4.22581C318.329 4.22581 318.329 4.3871 329.211 4.3871C340.276 4.3871 340.092 1.48387 351.158 1.48387C362.224 1.48387 362.224 3.90323 373.105 3.74194C384.171 3.74194 384.171 1 395.053 1C406.119 1 406.119 3.09677 417 3.09677" stroke="#F4EDE7" stroke-width="0.7" stroke-miterlimit="10"/>
</svg>
