<svg width="116" height="186" viewBox="0 0 116 186" fill="none" xmlns="http://www.w3.org/2000/svg">
<path d="M56.1183 179.095C27.2725 179.095 3.86798 155.237 3.86798 125.981V102.323H5.83474V125.981C5.83474 154.171 28.387 177.096 56.1183 177.096C83.8497 177.096 106.402 154.171 106.402 125.981V55.6065C106.402 32.6148 91.1922 12.3556 69.3612 6.2911L69.8856 4.35847C92.569 10.6229 108.369 31.6818 108.369 55.6065V125.981C108.369 155.303 84.9642 179.095 56.1183 179.095Z" fill="#597458"/>
<path d="M62.3464 98.924H42.8754L37.7619 110.92H35.9918L55.1349 66.4692H58.4129L77.4904 110.92H67.3944L62.3464 98.924ZM61.8219 97.6578L52.6437 76.1323L43.3999 97.6578H61.8219Z" fill="#597458"/>
<path d="M7.08034 87.1949V85.9287C7.9326 85.8621 8.78487 85.0624 8.78487 83.7295C8.78487 82.4633 7.99816 81.7302 7.1459 81.7302C6.22808 81.7302 5.76917 82.5966 5.57249 83.4629L5.2447 84.7292C4.72023 86.7951 3.54017 87.1283 2.75347 87.1283C1.04894 87.1283 0 85.5955 0 83.8628C0 82.1301 1.1145 80.7306 2.81902 80.7306V81.9968C1.83564 81.9968 1.18006 82.7965 1.18006 83.8628C1.18006 84.8624 1.77008 85.7954 2.75347 85.7954C3.08126 85.7954 3.8024 85.6622 4.1302 84.3293L4.45799 83.0631C4.85134 81.397 5.76917 80.3974 7.1459 80.3974C8.65375 80.3974 10.0305 81.6636 10.0305 83.6629C9.96492 85.7954 8.58819 87.1949 7.08034 87.1949Z" fill="#597458"/>
<path d="M1.31114 69.4014V72.4003H9.83377V73.7332H1.31114V76.7321H0.131084V69.4014H1.31114Z" fill="#597458"/>
<path d="M7.53923 53.8737L7.34255 58.1388L9.76823 59.2051L9.70267 60.538L0.131084 56.2729L0.196643 54.8734L10.096 51.6745L10.0305 53.0074L7.53923 53.8737ZM6.35917 54.2736L1.90117 55.7397L6.22805 57.6723L6.35917 54.2736Z" fill="#597458"/>
<path d="M3.54019 38.4127L12.8495 41.2117L12.5217 42.4112L4.13022 44.6104L11.2106 46.8096L10.8828 48.0092L1.57343 45.2102L1.90122 43.944L10.2272 41.8115L3.2124 39.6123L3.54019 38.4127Z" fill="#597458"/>
<path d="M6.55587 31.4819L8.52264 28.2164C9.96493 25.8173 12.5873 25.5507 14.9474 26.9502C17.3075 28.4164 18.2253 30.8821 16.7831 33.2812L14.8163 36.5467L6.55587 31.4819ZM15.7997 32.6815C16.8486 30.8821 16.0619 29.1494 14.2918 28.0831C12.5217 27.0169 10.555 27.0835 9.50602 28.8162L8.19484 30.9488L14.4885 34.814L15.7997 32.6815Z" fill="#597458"/>
<path d="M21.1755 21.6188L20.2577 22.5518L22.8144 25.2175L21.8966 26.1505L15.0785 19.0864L17.6353 16.4874C19.1432 14.9546 20.7821 15.4877 21.8311 16.554C22.8144 17.5537 23.3389 19.0864 22.1589 20.5526L26.5513 21.3523L25.4368 22.4852L21.1755 21.6188ZM19.4054 21.6855L20.8477 20.2193C21.8311 19.2197 21.6999 18.2867 20.9788 17.487C20.1921 16.6873 19.2087 16.6207 18.5531 17.3537L16.8486 19.0864L19.4054 21.6855Z" fill="#597458"/>
<path d="M34.4839 14.4215L35.0739 15.4211L30.157 18.6199L24.9779 10.2896L29.7637 7.15744L30.4193 8.22372L26.6824 10.6228L28.3214 13.3552L31.5993 11.2226L32.2549 12.2223L28.977 14.3548L30.5504 16.9539L34.4839 14.4215Z" fill="#597458"/>
<path d="M43.0721 9.35663L39.1385 10.7561L39.073 13.4885L37.8274 13.9549L38.024 3.35882L39.3352 2.89232L46.0878 10.956L44.8421 11.4225L43.0721 9.35663ZM42.2854 8.42363L39.2041 4.7583L39.1385 9.55655L42.2854 8.42363Z" fill="#597458"/>
<path d="M48.6446 7.55728L49.8902 7.424C50.0213 8.29035 50.9391 9.09006 52.2503 8.89013C53.4959 8.75685 54.0859 7.82385 54.0204 6.9575C53.8893 6.02451 52.9714 5.6913 52.1847 5.55801L50.8736 5.42473C48.7757 5.15816 48.3168 4.02524 48.1856 3.22553C47.989 1.55947 49.3657 0.293264 51.0047 0.0266944C52.7092 -0.173233 54.217 0.759761 54.4137 2.49246L53.1681 2.69239C53.037 1.69275 52.1847 1.15961 51.1358 1.2929C50.1524 1.42618 49.3657 2.09261 49.4968 3.09224C49.5624 3.42546 49.7591 4.15852 51.0702 4.29181L52.3814 4.42509C54.0859 4.62502 55.1349 5.42473 55.3315 6.82422C55.5282 8.35699 54.4793 9.88977 52.447 10.1563C50.3491 10.3563 48.8412 9.09006 48.6446 7.55728Z" fill="#597458"/>
<path d="M55.3316 180.428C53.627 180.428 49.5624 179.095 44.2521 177.229C41.6298 176.296 39.1386 175.496 38.4174 175.363L38.483 174.363C39.3352 174.43 41.6298 175.229 44.5799 176.229C48.579 177.629 54.5449 179.695 55.6594 179.295C56.9705 179.095 58.085 178.895 59.134 178.762C62.9364 178.162 65.6898 177.762 69.9512 176.029C70.279 175.896 70.6723 175.696 71.0001 175.563C72.0491 175.096 73.1636 174.563 74.3436 174.43C74.9992 174.363 75.6548 174.163 76.3759 174.03C76.5726 173.963 76.7037 173.963 76.9004 173.897C77.2282 173.097 77.7527 172.364 78.0805 171.964C78.4082 171.564 78.9327 171.298 79.3916 171.098C79.5883 171.031 79.7194 170.898 79.8505 170.831C80.7684 170.231 81.7517 169.632 82.7351 168.898C84.7019 167.566 86.7342 166.033 89.0288 164.3C92.0445 161.968 94.9946 159.502 97.8136 157.103C98.9281 156.17 100.043 155.303 101.092 154.37C101.157 154.304 101.223 154.237 101.288 154.171C108.303 145.84 107.713 144.574 107.647 144.574L108.237 143.774C108.434 143.908 108.631 144.108 108.696 144.507C108.893 145.907 106.664 149.372 102.141 154.77L102.206 154.837L101.747 155.17C100.633 156.103 99.5182 157.036 98.4037 157.902C95.5191 160.302 92.5689 162.767 89.5532 165.1C87.2587 166.899 85.2264 168.365 83.2596 169.765C82.2762 170.431 81.2928 171.098 80.3095 171.697C80.1783 171.764 79.9817 171.897 79.785 171.964C79.3916 172.164 78.9983 172.364 78.8016 172.63C78.5394 172.897 78.3427 173.297 78.146 173.63C82.9974 172.697 87.4554 172.164 91.7822 171.964C94.4701 171.764 97.2892 171.831 99.9771 172.164C101.419 172.031 102.731 172.364 103.779 173.297L103.911 173.43C104.304 174.297 103.386 174.896 103.058 175.096L102.927 175.163C100.502 176.896 96.9614 177.962 94.4701 178.495C90.6677 179.361 86.6031 179.495 82.7351 178.828C81.5551 178.628 77.9493 178.028 76.9004 175.563C76.8348 175.363 76.7693 175.096 76.7693 174.896H76.7037C76.0481 175.096 75.327 175.229 74.6058 175.363C73.4913 175.496 72.5735 175.963 71.5246 176.429C71.1312 176.629 70.8034 176.762 70.4101 176.896C65.9521 178.695 63.1986 179.095 59.3307 179.695C58.2817 179.828 57.1672 180.028 55.9216 180.228C55.7249 180.428 55.5282 180.428 55.3316 180.428ZM77.7527 174.763C77.6871 174.963 77.7527 175.163 77.8182 175.296C78.3427 176.629 80.0472 177.495 82.9318 177.962C86.6687 178.562 90.6022 178.428 94.339 177.629C96.7647 177.095 100.108 176.096 102.403 174.43L102.599 174.296C102.665 174.23 102.993 174.03 103.058 173.963C102.272 173.297 101.288 173.097 100.174 173.23H100.108H100.043C97.3547 172.897 94.6668 172.897 91.9789 173.03C87.5865 173.164 83.0629 173.763 78.0805 174.763C77.8838 174.763 77.8182 174.763 77.7527 174.763Z" fill="#597458"/>
<path d="M59.8552 177.295C59.7896 177.295 59.724 177.295 59.6585 177.295L59.1996 177.229L59.2651 176.762C59.4618 175.763 60.2485 174.696 61.0352 173.763C61.2319 173.497 61.4941 173.23 61.6253 172.964C63.2642 170.565 65.2965 168.365 67.7878 166.166C70.5412 163.7 73.5569 162.168 76.7693 160.635L76.966 160.568C77.3594 160.368 77.8183 160.102 78.2772 159.902C80.2439 158.835 82.4729 157.636 84.5708 157.836L85.0953 157.902L85.0297 158.436C84.7019 160.302 83.653 161.501 82.4729 162.767L82.1451 163.101C79.7195 165.833 77.0971 168.232 74.147 170.498C71.918 172.431 69.4267 173.963 66.7388 175.229L63.002 176.429C62.6086 176.496 61.953 176.496 61.4286 176.229C61.4286 176.229 61.4286 176.296 61.363 176.296C60.9697 176.762 60.5108 177.295 59.8552 177.295ZM62.2153 175.296C62.4775 175.296 62.8053 175.296 62.9364 175.296H63.0675L66.411 174.163C68.9678 172.964 71.3935 171.431 73.5569 169.565C76.5071 167.299 79.0639 164.9 81.424 162.234L81.7518 161.901C82.7352 160.835 83.5874 159.902 83.9152 158.636C82.2107 158.702 80.3751 159.702 78.7361 160.568C78.2772 160.835 77.8183 161.101 77.3594 161.301L77.1627 161.368C74.0159 162.901 71.0657 164.367 68.3778 166.766C65.9521 168.965 63.9854 171.098 62.3464 173.43C62.1497 173.697 61.953 173.963 61.6908 174.23L61.6253 174.296L62.2808 175.096C62.2808 175.229 62.2153 175.296 62.2153 175.296Z" fill="#597458"/>
<path d="M91.7167 170.631C91.3234 170.631 90.9956 170.498 90.7333 170.031L90.4055 169.498L90.9956 169.298C95.5191 167.965 96.3058 167.432 96.6992 167.099L96.8303 167.033C97.8137 166.299 98.7971 165.5 99.7804 164.7C100.698 163.967 101.616 163.234 102.599 162.501C102.665 162.434 110.663 156.503 114.138 157.769C114.925 158.036 115.383 158.636 115.58 159.502C115.908 160.968 114.466 161.834 113.482 162.434C113.286 162.567 113.154 162.634 113.023 162.701C109.024 165.3 103.911 166.766 99.3871 168.099L98.4693 168.365C96.4369 168.965 94.798 169.498 93.2246 170.098C93.159 170.098 93.0934 170.165 92.9623 170.231C92.7001 170.365 92.2412 170.631 91.7167 170.631ZM113.023 158.636C110.139 158.636 104.566 162.301 103.189 163.367C102.272 164.1 101.354 164.833 100.436 165.5C99.5838 166.166 98.7315 166.899 97.8137 167.566C97.9448 167.566 98.0759 167.499 98.1415 167.432L99.1248 167.166C103.583 165.9 108.631 164.433 112.499 161.901C112.63 161.834 112.827 161.701 113.023 161.568C114.007 160.968 114.859 160.435 114.662 159.768C114.531 159.235 114.269 158.902 113.81 158.769C113.548 158.702 113.286 158.636 113.023 158.636Z" fill="#597458"/>
<path d="M93.4868 160.435L93.2901 160.368C92.8312 160.235 92.4378 159.902 92.2411 159.502C91.4544 157.769 92.8967 153.971 94.2735 150.905C94.339 150.705 94.4701 150.505 94.4701 150.372C95.5191 147.839 96.568 145.374 98.1414 143.241C98.207 143.108 98.2726 143.041 98.4037 142.908C98.797 142.241 99.5182 141.175 100.698 141.642L100.96 141.708L101.026 141.975C101.813 145.374 100.108 148.906 98.6003 152.038C98.2725 152.638 98.0103 153.237 97.7481 153.837C97.6825 153.904 97.6825 154.037 97.5514 154.304C96.6991 156.57 95.7158 158.769 94.6668 159.102C94.6013 159.102 94.5357 159.102 94.4701 159.169C94.339 159.768 93.9457 160.102 93.6179 160.368L93.4868 160.435ZM100.108 142.575C99.846 142.641 99.6493 142.908 99.2559 143.508C99.1904 143.641 99.0593 143.774 98.9937 143.908C97.5514 145.973 96.5025 148.373 95.4535 150.838C95.388 150.972 95.3224 151.105 95.1913 151.371C93.3556 155.503 92.6345 158.102 93.159 159.102C93.2245 159.235 93.2901 159.302 93.3556 159.369C93.4868 159.235 93.6179 159.035 93.6179 158.569L93.6834 157.636L94.4046 158.169C94.5357 158.169 95.1913 157.836 96.6336 153.971C96.6991 153.704 96.7647 153.571 96.8303 153.437C97.0925 152.838 97.4203 152.238 97.6825 151.571C99.0593 148.772 100.633 145.574 100.108 142.575Z" fill="#597458"/>
<path d="M108.041 144.707C107.844 144.707 107.713 144.707 107.516 144.641C106.926 144.441 106.271 143.841 106.336 142.042C106.402 140.775 107.123 137.91 108.696 136.71C109.352 136.244 110.073 136.044 110.86 136.244L110.925 136.31C112.171 136.91 112.827 137.91 112.892 139.309C113.089 140.442 112.63 141.375 111.581 141.775L111.515 141.708C111.188 142.375 110.86 142.841 110.86 142.841C110.073 143.974 108.959 144.707 108.041 144.707ZM110.27 137.177C109.942 137.177 109.614 137.31 109.352 137.51C108.106 138.443 107.451 140.909 107.385 142.042C107.32 142.908 107.516 143.508 107.91 143.641C108.369 143.774 109.352 143.308 110.139 142.175C110.663 141.375 111.45 139.709 111.45 139.043L111.253 139.109L110.991 138.11L111.515 137.976C111.319 137.643 110.991 137.377 110.598 137.177C110.467 137.177 110.401 137.177 110.27 137.177Z" fill="#597458"/>
<path d="M110.925 155.303C110.663 155.303 110.335 155.303 110.073 155.237L110.139 154.77C109.352 154.704 108.369 154.37 107.91 153.571C107.647 153.104 107.516 152.371 108.237 151.238C109.09 149.905 110.794 148.972 112.302 149.039C113.417 149.039 114.4 149.639 114.924 150.572C115.646 151.905 115.383 153.171 114.269 154.237C113.22 154.97 112.105 155.303 110.925 155.303ZM112.237 150.039C111.057 150.039 109.68 150.772 109.09 151.771C108.828 152.171 108.565 152.704 108.828 153.038C109.09 153.504 110.073 153.771 111.253 153.771C112.499 153.704 112.695 153.504 113.482 152.704L113.613 152.571L114.072 153.038C114.466 152.438 114.466 151.838 114.072 151.105C113.679 150.439 113.089 150.039 112.237 150.039Z" fill="#597458"/>
<path d="M69.099 185.692C67.3944 185.692 65.6899 184.493 64.9032 183.227L64.7721 182.96L64.9032 182.693C65.6899 181.161 67.1977 179.894 68.8367 179.495C70.0823 179.161 71.3279 179.295 72.3113 179.961C73.6225 180.761 74.0159 181.96 73.4258 183.293C72.9014 184.359 72.1802 184.759 71.3279 184.826C71.1968 184.959 71.0657 185.026 70.9346 185.159C70.279 185.492 69.689 185.692 69.099 185.692ZM65.8866 182.893C66.8044 184.026 68.64 185.093 70.0168 184.426L70.0823 183.76C70.279 183.76 70.5412 183.76 70.7379 183.826C70.7379 183.76 70.7379 183.626 70.8035 183.493C70.8035 183.293 70.8035 183.093 70.869 182.893L71.8524 183.093C71.8524 183.293 71.7869 183.426 71.7869 183.56C71.7869 183.626 71.7869 183.626 71.7869 183.693C72.1147 183.56 72.3113 183.293 72.5736 182.893C72.7047 182.627 73.1636 181.694 71.8524 180.894C70.869 180.228 69.8201 180.361 69.1645 180.561C67.7878 180.827 66.5422 181.76 65.8866 182.893Z" fill="#597458"/>
</svg>
